<svg width="211" height="193" viewBox="0 0 211 193" fill="none" xmlns="http://www.w3.org/2000/svg">
<path d="M0.711434 181.301C1.45519 179.027 41.9368 126.817 44.6993 125.842C45.0181 125.734 62.337 138.841 62.337 138.841C63.0807 139.816 96.6561 133.316 96.6561 133.316L96.1248 174.477L35.1368 171.878C35.1368 171.878 26.8492 176.644 19.1991 180.543C15.9053 182.276 12.6115 183.901 9.21151 185.201C6.13023 186.067 -0.138574 183.576 0.711434 181.301Z" fill="#AD6359"/>
<path d="M9.21217 185.31C12.6122 184.01 16.0122 182.385 19.1998 180.652C26.8498 176.753 35.1374 171.987 35.1374 171.987L48.7375 172.528L70.7315 138.083C66.0564 138.841 62.5502 139.274 62.3377 138.95C62.3377 138.95 45.0188 125.843 44.7 125.951C41.9375 126.926 1.45585 179.136 0.712091 181.41C-0.0316659 183.685 6.13089 186.068 9.21217 185.31Z" fill="white"/>
<path d="M0.286622 181.41C1.13663 179.135 41.7245 126.926 44.487 125.951C45.5495 125.518 54.0496 131.15 62.231 138.949L35.9869 172.528C35.9869 172.528 12.1867 184.768 8.9992 185.526C5.81167 186.284 -0.457135 183.685 0.286622 181.41Z" fill="#FE9563"/>
<path d="M2.94328 182.276C9.95585 173.719 37.4748 138.408 43.8499 129.417C43.8499 129.309 43.8499 129.309 43.7436 129.417C36.6248 137.758 9.31833 173.286 2.73077 182.276C2.73077 182.385 2.83703 182.493 2.94328 182.276Z" fill="#263238"/>
<path d="M13.4627 183.685C15.0565 181.735 15.8002 179.244 15.4815 176.753C15.1627 174.586 14.1002 172.528 12.4002 171.12C12.294 171.12 12.294 171.228 12.294 171.228C15.3752 174.586 15.8002 179.677 13.4627 183.685C13.4627 183.685 13.3565 183.685 13.4627 183.685Z" fill="#263238"/>
<path d="M33.0127 174.586C35.7752 171.12 37.6877 166.029 36.6252 161.588C36.6252 161.371 36.3065 161.48 36.3065 161.588C35.5627 165.921 34.2877 170.253 32.5877 174.261C32.5877 174.369 32.6939 174.586 32.8002 174.586C32.9064 174.694 33.0127 174.586 33.0127 174.586Z" fill="#263238"/>
<path d="M29.9315 176.427C32.6941 172.961 34.6066 167.87 33.5441 163.429C33.5441 163.213 33.2253 163.321 33.2253 163.429C32.3753 167.762 31.2066 172.095 29.4003 176.103C29.4003 176.211 29.4003 176.427 29.6128 176.427C29.719 176.536 29.8253 176.536 29.9315 176.427Z" fill="#263238"/>
<path d="M26.7441 178.269C29.5066 174.803 31.4191 169.712 30.3566 165.271C30.3566 165.054 30.0379 165.162 30.0379 165.271C29.1879 169.603 28.0191 173.828 26.3191 177.944C26.2128 178.052 26.3191 178.269 26.4253 178.377C26.5316 178.485 26.7441 178.485 26.7441 178.269Z" fill="#263238"/>
<path d="M23.6619 180.218C26.4244 176.752 28.3369 171.661 27.2744 167.22C27.2744 167.004 26.9557 167.112 26.9557 167.22C26.1057 171.553 24.9369 175.886 23.1306 180.002C23.1306 180.11 23.2369 180.327 23.3431 180.327C23.4494 180.327 23.5556 180.218 23.6619 180.218Z" fill="#263238"/>
<path d="M50.2268 138.3C53.3081 134.401 47.2518 129.526 44.2767 133.426C41.3017 137.325 47.1455 142.2 50.2268 138.3Z" fill="#263238"/>
<path d="M39.2811 185.742C42.1498 185.092 42.4686 181.735 41.8311 179.46C40.6623 175.56 38.431 171.986 35.5623 169.17C35.5623 169.17 35.456 169.061 35.3498 169.17C35.1373 169.061 34.8185 169.17 34.606 169.386V169.495C34.3935 173.394 33.6497 177.51 34.4998 181.301C35.031 183.684 36.6248 186.392 39.2811 185.742ZM35.3498 175.56C35.456 173.611 35.5623 171.769 35.5623 169.82C36.8373 171.769 38.006 173.827 39.0686 175.885C39.5998 176.86 40.0248 177.943 40.3436 179.027C40.8748 180.651 41.0873 186.501 37.0498 183.793C34.9248 182.385 35.2435 177.835 35.3498 175.56Z" fill="#263238"/>
<path d="M40.9814 159.53C38.1126 162.238 36.5188 166.029 34.7126 169.387C34.6063 169.604 34.7125 169.929 34.9251 170.146C34.9251 170.146 35.0313 170.146 35.1376 170.146C35.1376 170.254 35.1376 170.254 35.2438 170.254C39.1751 169.604 43.0001 167.871 46.0814 165.163C47.8877 163.646 49.3752 160.614 47.3564 158.556C45.3377 156.497 42.6814 157.906 40.9814 159.53ZM44.5939 158.989C49.3752 158.989 46.0814 163.755 44.7002 164.838C43.8501 165.488 42.8939 166.138 41.9376 166.788C39.9189 167.979 37.7938 168.954 35.6688 169.929C36.7313 168.304 37.5813 166.679 38.5376 165.055C39.7064 162.888 41.9376 158.989 44.5939 158.989Z" fill="#263238"/>
<path d="M98.5692 123.568L126.088 121.402C126.088 121.402 165.826 109.703 188.776 115.769C215.127 122.81 218.739 154.114 192.07 166.679C165.614 179.135 49.1625 174.478 49.1625 174.478L74.1315 136.783C74.1315 136.783 112.488 127.576 146.063 129.417L98.5692 134.941V123.568Z" fill="#37474F"/>
<path d="M98.8878 131.583C103.032 130.934 107.069 130.5 111.213 130.175C115.357 129.742 119.5 129.525 123.751 129.2C132.038 128.659 140.432 128.551 148.72 128.767L151.057 128.875C151.27 128.875 151.376 128.767 151.588 128.767C152.013 128.659 152.438 128.551 152.757 128.551C153.501 128.442 154.245 128.334 154.988 128.226C156.582 128.009 158.176 127.901 159.77 127.576C159.77 127.576 159.876 127.576 159.876 127.684C159.876 127.792 159.876 127.792 159.77 127.792C158.176 128.117 156.582 128.551 154.988 128.875L153.607 129.092C156.688 129.309 159.663 129.634 162.745 129.959C162.851 129.959 162.851 130.067 162.745 130.067C158.601 129.742 154.457 129.634 150.313 129.634C146.169 129.634 142.026 129.634 137.988 129.742C129.594 130.067 121.307 130.609 113.019 131.367C108.344 131.8 103.669 132.233 98.994 132.342C98.4628 132.45 98.4628 131.692 98.8878 131.583Z" fill="#263238"/>
<path d="M61.0637 173.72C62.5512 171.337 63.9325 168.737 65.3138 166.246L69.5638 158.772C72.4326 153.79 82.5264 137.217 83.5889 136.025C83.6952 135.917 83.8014 136.025 83.6952 136.134C83.1639 137.433 76.7889 148.482 75.4076 150.865C72.4326 155.739 69.4575 160.614 66.3763 165.488C65.5263 166.896 64.6763 168.196 63.72 169.604C62.7637 171.012 61.9137 172.42 61.0637 173.72C61.0637 173.937 60.9575 173.828 61.0637 173.72Z" fill="#263238"/>
<path d="M197.702 188.992C197.065 186.717 159.027 132.558 156.37 131.475C156.052 131.367 138.095 143.606 138.095 143.606C137.352 144.581 104.095 136.457 104.095 136.457L102.714 177.618L163.702 177.943C163.702 177.943 171.777 183.143 179.214 187.367C182.402 189.317 185.589 191.05 188.99 192.566C192.071 193.325 198.34 191.266 197.702 188.992Z" fill="#AD6359"/>
<path d="M189.094 192.458C185.694 190.942 182.506 189.208 179.319 187.259C171.881 183.034 163.806 177.835 163.806 177.835L150.206 177.727L129.912 142.198C134.587 143.173 137.987 143.823 138.306 143.498C138.306 143.498 156.262 131.15 156.581 131.367C159.237 132.45 197.275 186.609 197.913 188.883C198.55 191.158 192.069 193.325 189.094 192.458Z" fill="white"/>
<path d="M198.126 188.992C197.383 186.609 159.238 132.558 156.476 131.475C155.413 131.042 146.701 136.241 138.201 143.607L162.851 178.485C162.851 178.485 186.12 191.916 189.201 192.783C192.282 193.65 198.764 191.375 198.126 188.992Z" fill="#FE9563"/>
<path d="M195.471 189.751C188.883 180.868 162.958 144.257 157.114 134.942C157.114 134.833 157.114 134.833 157.22 134.942C164.02 143.607 189.521 180.435 195.683 189.642C195.683 189.859 195.577 189.967 195.471 189.751Z" fill="#263238"/>
<path d="M184.844 190.618C183.357 188.668 182.719 186.068 183.144 183.577C183.463 181.411 184.738 179.353 186.438 178.053L186.544 178.161C183.357 181.411 182.719 186.502 184.95 190.509C184.95 190.618 184.844 190.726 184.844 190.618Z" fill="#263238"/>
<path d="M165.72 180.651C163.064 177.077 161.364 171.986 162.745 167.545C162.745 167.328 163.064 167.436 163.064 167.545C163.702 171.877 164.764 176.21 166.252 180.326C166.358 180.434 166.252 180.651 166.145 180.759C165.933 180.759 165.827 180.759 165.72 180.651Z" fill="#263238"/>
<path d="M168.803 182.602C166.146 179.028 164.446 173.937 165.828 169.496C165.828 169.279 166.146 169.387 166.146 169.496C166.784 173.828 167.846 178.161 169.334 182.277C169.334 182.386 169.334 182.602 169.121 182.602C169.015 182.819 168.803 182.71 168.803 182.602Z" fill="#263238"/>
<path d="M171.779 184.659C169.122 181.085 167.422 175.886 168.804 171.553C168.804 171.336 169.122 171.444 169.122 171.553C169.76 175.886 170.822 180.218 172.31 184.334C172.416 184.443 172.31 184.659 172.204 184.659C172.097 184.876 171.885 184.768 171.779 184.659Z" fill="#263238"/>
<path d="M174.857 186.718C172.201 183.143 170.501 177.944 171.882 173.611C171.882 173.395 172.201 173.503 172.201 173.611C172.838 177.944 173.901 182.277 175.388 186.393C175.495 186.501 175.388 186.718 175.282 186.718C175.07 186.826 174.963 186.826 174.857 186.718Z" fill="#263238"/>
<path d="M150.209 143.499C147.34 139.383 153.503 134.833 156.478 138.949C159.453 143.065 153.078 147.615 150.209 143.499Z" fill="#263238"/>
<path d="M164.02 187.367C165.082 183.576 164.551 179.46 164.551 175.56C164.551 175.235 164.232 175.019 164.02 175.019C163.913 175.019 163.913 175.019 163.807 175.019C163.807 175.019 163.701 174.911 163.595 175.019C160.513 177.727 158.176 181.085 156.794 184.984C156.051 187.259 156.263 190.617 159.026 191.375C161.788 192.133 163.276 189.642 164.02 187.367ZM161.151 189.75C157.007 192.241 157.432 186.501 158.07 184.876C158.495 183.793 159.026 182.818 159.557 181.735C160.726 179.677 162.107 177.727 163.382 175.777C163.276 177.727 163.382 179.568 163.382 181.518C163.382 183.793 163.488 188.342 161.151 189.75Z" fill="#263238"/>
<path d="M152.227 163.971C150.102 165.92 151.483 169.061 153.183 170.686C156.158 173.503 159.877 175.344 163.808 176.21C163.914 176.21 163.914 176.21 163.914 176.102C164.233 176.102 164.446 175.777 164.446 175.561C164.446 175.452 164.446 175.452 164.446 175.344C162.746 171.878 161.258 167.978 158.602 165.162C156.902 163.537 154.139 162.021 152.227 163.971ZM160.727 170.686C161.577 172.311 162.427 174.044 163.383 175.669C161.364 174.586 159.239 173.611 157.221 172.311C156.264 171.661 155.414 171.011 154.458 170.253C153.183 169.061 150.102 164.295 154.883 164.404C157.539 164.62 159.664 168.628 160.727 170.686Z" fill="#263238"/>
<path d="M102.608 123.784L75.1952 123.026C75.1952 123.026 46.9325 108.186 23.7698 113.277C-2.793 119.018 -7.04304 152.814 12.4009 165.27C37.0511 181.085 148.508 181.193 148.508 181.193L125.558 138.949C125.558 138.949 88.6891 129.958 55.1138 130.283L102.289 138.191L102.608 123.784Z" fill="#37474F"/>
<path d="M127.045 141.657C127.045 141.549 127.045 141.549 127.045 141.441V141.224L126.939 140.791C126.833 140.466 126.833 140.249 126.726 139.924C126.62 139.707 126.514 139.383 126.408 139.166C126.301 138.949 126.089 138.624 125.983 138.408C125.983 138.408 125.983 138.408 125.876 138.408H125.77H125.664C121.626 137.541 94.0012 132.775 89.9636 132.125C85.9261 131.475 81.6761 131.042 77.5323 130.5C69.2447 129.526 60.9571 128.984 52.5633 128.876H50.2258L49.6945 128.767L48.5258 128.442C47.782 128.334 47.0383 128.117 46.2945 128.009C44.7007 127.684 43.107 127.468 41.6194 127.143C41.5132 127.143 41.5132 127.251 41.6194 127.251C43.2132 127.684 44.7007 128.117 46.2945 128.551L47.6757 128.876C44.5945 128.984 41.5132 129.092 38.5382 129.309C38.5382 129.309 38.4319 129.309 38.4319 129.417C38.4319 129.526 38.4319 129.526 38.5382 129.526C42.682 129.417 46.8258 129.526 51.0758 129.634C55.3258 129.742 59.3634 130.067 63.4009 130.392C71.6885 131.15 79.9761 132.125 88.2636 133.208C92.9387 133.858 120.989 138.733 125.664 139.166C125.664 139.274 125.77 139.383 125.77 139.491C125.77 139.599 125.983 140.032 126.195 140.249C126.408 140.466 126.408 140.791 126.62 141.007L126.833 141.332L126.939 141.549C126.939 141.657 127.045 141.657 127.045 141.766C126.939 141.874 127.045 141.766 127.045 141.657Z" fill="#263238"/>
<path d="M139.795 178.485C138.413 175.994 137.138 173.394 135.863 170.795L131.932 163.104C129.276 158.013 119.926 140.899 118.969 139.707C118.863 139.599 118.757 139.707 118.863 139.816C119.288 141.116 125.132 152.489 126.513 154.98C129.17 160.071 132.038 164.946 134.907 170.037C135.757 171.445 136.501 172.853 137.351 174.261C138.201 175.669 139.051 177.077 139.795 178.485C139.901 178.485 139.795 178.594 139.795 178.485Z" fill="#263238"/>
<path d="M50.0129 7.99382L54.2629 40.056C54.4754 41.0308 53.9441 41.6807 53.0941 41.5724L37.369 39.731C36.4127 39.5144 35.5627 38.7562 35.3502 37.7813L31.2064 5.71917C30.9939 4.7443 31.5252 4.09437 32.3752 4.20269L48.1003 6.04411C49.0566 6.36906 49.8004 7.01896 50.0129 7.99382Z" fill="#37474F"/>
<path d="M48.207 7.77653L52.4571 39.8387C52.6696 40.8136 52.1383 41.4635 51.2883 41.3551L35.5632 39.5137C34.6069 39.2971 33.7569 38.5389 33.5444 37.564L29.2944 5.50185C29.0819 4.52699 29.6131 3.87708 30.4631 3.9854L46.1883 5.82679C47.1445 6.04343 47.9945 6.80167 48.207 7.77653Z" fill="#455A64"/>
<path d="M43.7425 8.75051C43.6362 9.50874 44.2737 10.1586 45.0175 10.267C45.7613 10.3753 46.3988 9.72539 46.505 8.96716C46.6113 8.20894 45.9738 7.559 45.3363 7.45068C44.38 7.45068 43.7425 7.99229 43.7425 8.75051Z" fill="#263238"/>
<path d="M95.7001 59.011C84.7562 77.425 61.806 100.28 53.6247 101.147C49.6934 101.58 42.5746 101.688 37.8995 96.489C27.6994 85.224 20.2619 64.8601 19.4119 53.5951C19.0931 49.5873 38.7495 43.0882 41.1933 46.5544C46.9309 54.7866 52.8809 70.276 54.0497 70.276C58.2997 70.3844 74.3436 59.1193 87.3062 51.1038C102.713 41.6801 100.056 51.6453 95.7001 59.011Z" fill="#FFC4C0"/>
<path d="M21.0054 33.2313C23.7679 25.4324 25.6804 23.9159 24.6179 16.117C23.9804 10.9177 26.8492 8.31814 29.9305 12.7592C34.9243 19.9082 33.3305 30.74 31.7367 34.3145L21.0054 33.2313Z" fill="#FFC4C0"/>
<path d="M19.8378 57.0608C19.8378 57.0608 17.5003 45.5791 19.7316 37.022C21.2191 31.0645 26.0004 18.6079 43.213 13.5169C47.3568 12.3254 53.9444 13.6253 47.9943 17.958C43.7443 21.0992 40.1317 21.7491 38.0067 24.0238C38.0067 24.0238 46.2943 26.6234 47.3568 30.8478C48.2068 34.5306 48.8443 38.3218 49.2693 42.1129C48.6318 42.3295 47.8881 42.5462 47.2506 42.6545C47.2506 42.6545 48.1006 46.6623 44.7005 51.8615L19.8378 57.0608Z" fill="#FFC4C0"/>
<path d="M22.1737 31.6061C24.7237 29.7647 30.355 26.0819 35.9863 24.5654C42.2551 22.9407 54.6865 21.6409 55.749 26.2985C56.599 29.7647 51.8177 30.7396 51.8177 30.7396C51.8177 30.7396 57.024 31.2811 57.1303 34.5307C57.2365 37.5636 53.5177 37.9969 53.5177 37.9969C53.5177 37.9969 56.7052 38.8634 56.174 41.788C55.5365 45.2542 49.1614 42.8712 45.5489 45.7958C44.6989 46.554 22.1737 31.6061 22.1737 31.6061Z" fill="#FFC4C0"/>
<path d="M36.5195 31.6055C41.407 29.7641 46.7196 29.3308 51.7134 30.6306C51.8196 30.6306 51.9259 30.7389 51.8196 30.7389C46.6133 30.4139 41.5133 30.7389 36.5195 31.6055C36.5195 31.7138 36.4132 31.6055 36.5195 31.6055Z" fill="#263238"/>
<path d="M38.2178 37.9965C40.6616 37.1299 47.8867 36.0467 53.518 37.9965C53.6242 37.9965 53.6242 38.1048 53.518 38.1048C48.4179 37.5632 43.3179 37.5632 38.2178 38.1048V37.9965Z" fill="#263238"/>
<path d="M81.8884 79.1581L58.7256 67.4597C58.7256 67.4597 80.8259 52.7284 91.1322 48.2874C101.864 43.738 105.476 46.2294 96.6572 59.1192C87.8384 72.0091 81.8884 79.1581 81.8884 79.1581Z" fill="#FE9563"/>
<path d="M85.9259 74.1746L85.8196 74.2829C84.4384 73.4164 83.0571 72.6581 81.5696 71.8999C80.1883 71.1417 78.7008 70.6001 77.2133 70.1668L76.8945 70.0585L76.4695 69.9502C74.6633 69.5169 72.857 69.5169 71.0507 69.8419C69.5632 70.1668 68.182 70.7084 66.8007 71.3583L66.4819 71.25C67.8632 70.4918 69.457 69.9502 71.0507 69.6253C72.857 69.3003 74.7695 69.4086 76.5758 69.7335L77.2133 69.8419L77.532 69.9502C79.0196 70.3835 80.4008 70.9251 81.7821 71.6833C83.0571 72.5498 84.5446 73.3081 85.9259 74.1746ZM100.057 52.511C98.4635 53.3775 96.8697 54.569 95.5947 55.8688C94.3197 57.1687 93.1509 58.7934 92.3009 60.4182C91.3447 62.1513 90.6009 63.9927 89.9634 65.8341C89.9634 65.9424 89.8572 65.9424 89.8572 66.0507C89.3259 67.6755 88.7947 69.3003 88.2634 70.9251C88.4759 70.7084 88.6884 70.3835 88.7947 70.1668C89.2197 68.7587 89.6447 67.4589 90.0697 66.0507C90.0697 65.9424 90.0697 65.9424 90.1759 65.8341C90.8134 63.9927 91.5572 62.2596 92.4072 60.5265C94.2134 57.1686 96.8697 54.4607 100.057 52.7276L100.482 52.511L100.589 52.186L100.057 52.511ZM90.1759 65.9424H89.8572C88.0509 65.6175 86.2446 65.7258 84.5446 66.0507C82.7383 66.484 81.0383 67.2422 79.4446 68.2171C78.5946 68.7587 77.8508 69.3003 77.107 69.9502L76.8945 70.1668C76.257 70.7084 75.7258 71.25 75.1945 71.7916C74.3445 72.6582 73.6008 73.633 72.9632 74.6079L73.1757 74.7162C73.8133 73.7413 74.557 72.8748 75.407 72.0082C76.0445 71.3583 76.5758 70.8167 77.3195 70.2751L77.532 70.0585C78.2758 69.5169 78.9133 68.9753 79.7633 68.4338C81.3571 67.4589 83.0571 66.7007 84.7571 66.2674C86.4571 65.8341 88.2634 65.8341 89.9634 66.1591H90.1759H90.2822C90.7072 66.2674 91.2384 66.3757 91.7697 66.484L91.8759 66.2674C91.2384 66.1591 90.7072 66.0507 90.1759 65.9424Z" fill="white"/>
<path d="M82.3132 74.2831C81.7819 73.9582 81.2507 73.6332 80.7194 73.4166L79.0194 72.55C77.8506 71.9001 76.7881 71.3585 75.6194 70.8169C73.2818 69.6254 71.0506 68.434 68.713 67.3508C68.0755 67.0258 67.438 66.7008 66.8005 66.4842C66.163 66.2676 65.4193 65.9426 64.7818 65.6177C64.7818 65.6177 64.6755 65.6177 64.7818 65.726C65.313 66.051 65.8443 66.3759 66.4818 66.7009C67.1193 67.0258 67.6505 67.3508 68.1818 67.6757L71.5818 69.4088C73.8131 70.492 76.1506 71.6835 78.3819 72.7667L80.2944 73.6332C80.9319 73.7415 81.6757 74.1748 82.3132 74.2831C82.3132 74.3914 82.3132 74.3914 82.3132 74.2831Z" fill="#263238"/>
<path opacity="0.1" d="M96.6567 59.2274C87.8379 72.2256 81.8878 79.2663 81.8878 79.2663L71.5815 74.067L100.163 46.5542C102.713 47.4207 102.076 51.3202 96.6567 59.2274Z" fill="black"/>
<path d="M69.7765 123.46C70.7327 124.543 134.165 123.894 134.483 123.46C135.44 122.377 124.283 66.5933 113.127 49.5873C109.408 43.8465 97.4017 42.6549 93.2579 48.2875C81.3578 64.3186 69.0327 122.485 69.7765 123.46Z" fill="#FE9563"/>
<path d="M125.665 82.0819C124.496 83.2734 123.115 84.2482 121.627 85.0065C120.033 85.873 118.227 86.6312 116.421 87.0645C114.615 87.4978 112.702 87.6061 110.896 87.4978C109.09 87.2812 107.177 86.9562 105.477 86.3063C103.777 85.6564 102.077 84.8981 100.377 84.0316C98.5708 83.0567 96.8708 81.9736 95.1708 80.7821L94.852 80.5654C93.577 79.6989 92.302 78.8323 91.027 77.9658C89.752 77.0992 88.4769 76.2327 87.2019 75.3661L86.9894 75.2578C85.5019 74.283 84.1206 73.4164 82.5269 72.6582C82.5269 72.5499 82.5269 72.5499 82.6331 72.4415C84.1207 73.3081 85.6082 74.1746 87.0957 75.1495L87.3082 75.3661C88.5832 76.2327 89.8582 77.0992 91.1332 77.9658C92.4082 78.8323 93.6832 79.8072 94.9582 80.6737C95.0645 80.782 95.1707 80.7821 95.277 80.8904L95.702 81.2153C97.2958 82.1902 98.8895 83.1651 100.483 84.1399C102.077 85.0065 103.777 85.7647 105.583 86.4146C107.283 87.0645 109.09 87.4978 111.002 87.6061C112.808 87.8227 114.721 87.6061 116.527 87.1728C118.333 86.7395 120.033 85.9813 121.627 85.1148C123.009 84.3566 124.284 83.49 125.346 82.4068C125.452 82.4068 125.452 82.2985 125.559 82.1902C125.665 82.1902 125.665 82.0819 125.665 82.0819V82.1902C125.665 82.1902 125.665 81.9736 125.665 82.0819ZM113.977 50.6696C112.915 50.453 111.852 50.2364 110.79 50.128C110.577 50.128 110.365 50.128 110.258 50.128C110.152 50.128 109.94 50.128 109.833 50.128C108.346 50.0197 106.752 50.2364 105.265 50.5613C103.458 50.9946 101.758 51.6445 100.058 52.6193C98.4645 53.4859 96.8708 54.6774 95.5958 55.9772C94.3207 57.277 93.152 58.9018 92.302 60.5266C91.3457 62.2596 90.602 64.1011 89.9645 65.9425C89.9645 66.0508 89.8582 66.0508 89.8582 66.1591C89.327 67.7839 88.7957 69.4087 88.2644 71.1418C87.8394 72.4416 87.4144 73.7414 86.9894 74.9329C86.9894 74.9329 86.9894 75.0412 86.8832 75.0412C86.1394 77.2076 85.0769 79.3739 83.6957 81.2153C82.8456 82.4068 81.7831 83.49 80.6144 84.4649L80.4019 84.6815L79.7644 85.1148C79.2331 85.4397 78.8081 85.7647 78.2768 86.0896L78.1706 86.5229C78.8081 86.1979 79.4456 85.873 79.9769 85.4397C80.2956 85.2231 80.5081 85.0065 80.8269 84.7898L81.1456 84.5732C82.2081 83.7066 83.1644 82.6235 84.0144 81.432C85.3957 79.4822 86.4582 77.4242 87.2019 75.1495V75.0412C87.7332 73.7414 88.1582 72.4416 88.4769 71.1418C89.0082 69.517 89.5395 67.7839 90.0707 66.1591C90.0707 66.0508 90.0707 66.0508 90.177 65.9425C90.8145 64.1011 91.5582 62.368 92.4082 60.6349C94.2145 57.277 96.8708 54.5691 100.058 52.836C101.652 51.9695 103.352 51.2112 105.158 50.7779C106.54 50.453 108.027 50.2363 109.515 50.2363H109.94H110.683C111.746 50.3447 112.915 50.5613 113.977 50.7779V50.6696ZM112.171 48.2866C111.321 48.8282 110.577 49.4781 109.833 50.128L109.621 50.3447C109.302 50.6696 108.983 50.9946 108.665 51.3195C107.39 52.7277 106.327 54.3524 105.477 55.9772C103.99 59.4434 102.821 63.0179 101.971 66.7007C101.652 68.0005 101.227 69.3003 100.802 70.6002V70.7085C100.165 72.9832 99.102 75.0412 97.827 77.0992C96.977 78.2907 96.0208 79.4823 94.9582 80.4571C94.9582 80.4571 94.9583 80.5654 94.852 80.5654C94.6395 80.782 94.3208 80.9987 94.1082 81.2153C92.6207 82.2985 91.027 83.2734 89.327 83.9233C87.6269 84.5732 85.8207 84.8981 83.9082 84.8981C82.9519 84.8981 81.9956 84.7898 81.0394 84.6815C80.9331 84.6815 80.7206 84.6815 80.6144 84.5732C79.9769 84.4649 79.4456 84.3566 78.8081 84.2482L78.7019 84.4649C79.2331 84.5732 79.7644 84.6815 80.2956 84.7898L80.7206 84.8981C81.7831 85.1148 82.8456 85.2231 83.9082 85.2231C85.8207 85.2231 87.6269 84.8982 89.4332 84.2482C91.1332 83.5983 92.727 82.6235 94.2145 81.432C94.5332 81.2153 94.852 80.9987 95.0645 80.6737L95.1708 80.5654C96.2333 79.5905 97.1895 78.5074 98.0395 77.2076C99.3145 75.2578 100.271 73.0915 101.015 70.8168V70.7085C101.44 69.4087 101.865 68.1088 102.183 66.7007C103.033 63.0179 104.202 59.4434 105.69 55.9772C106.54 54.2441 107.496 52.7277 108.771 51.3195C109.09 50.8862 109.515 50.5613 109.94 50.128C110.046 50.0197 110.046 50.0197 110.152 50.0197C110.79 49.3698 111.533 48.8282 112.277 48.2866C112.171 48.3949 112.171 48.2866 112.171 48.2866ZM125.665 82.0819V81.9736H125.346C123.54 81.8652 121.627 81.5403 119.927 80.9987C118.121 80.4571 116.421 79.6989 114.827 78.9406C113.127 78.0741 111.533 77.2075 109.94 76.2327C108.346 75.2578 106.752 74.283 105.265 73.3081C103.99 72.4416 102.608 71.6833 101.333 70.8168C101.227 70.7085 101.121 70.7085 101.015 70.6002C99.2083 69.517 97.402 68.5421 95.5958 67.6756C93.8957 66.9173 92.1957 66.3757 90.3895 65.9425H90.2832H90.0707C88.3707 65.6175 86.5644 65.6175 84.8644 66.0508C84.8644 66.1591 84.7582 66.2674 84.7582 66.3758C86.4582 65.9425 88.2644 65.9425 89.9645 66.2674H90.177H90.2832C92.0895 66.5924 93.7895 67.134 95.4895 67.8922C97.402 68.7588 99.2083 69.7336 100.908 70.7085L101.227 70.9251C102.502 71.6833 103.883 72.5499 105.158 73.3081C108.346 75.2578 111.427 77.3159 114.827 78.9406C116.527 79.8072 118.227 80.4571 120.033 81.107C121.84 81.6486 123.646 81.9736 125.452 82.0819H125.665ZM129.809 98.3296C128.109 98.9795 126.515 99.7377 125.027 100.821C122.052 103.096 119.29 105.695 116.846 108.511C115.89 109.486 115.04 110.461 113.977 111.328L113.871 111.436C112.171 113.061 110.365 114.469 108.24 115.552C106.646 116.419 104.84 116.96 103.033 117.285H102.927C101.121 117.502 99.3145 117.502 97.5083 117.285C96.0208 117.069 94.6395 116.635 93.3645 115.985L93.0457 115.769L92.4082 115.444C90.8145 114.469 89.327 113.386 87.9457 112.086C85.6082 109.92 83.4832 107.537 81.0394 105.37L80.8269 105.262C80.5081 104.937 80.1894 104.72 79.7644 104.395C78.2769 103.204 76.6831 102.229 74.9831 101.471L74.3456 101.254H74.2393C74.2393 101.254 74.2393 101.254 74.2393 101.362L74.9831 101.687C76.6831 102.446 78.2768 103.421 79.6581 104.612L80.6144 105.479L80.8269 105.587C83.2707 107.753 85.3957 110.136 87.7332 112.303C89.1145 113.602 90.602 114.794 92.1957 115.66L92.6207 115.877L92.9395 116.094C94.3207 116.852 95.8083 117.285 97.402 117.502C99.2083 117.719 101.121 117.719 102.927 117.502H103.033C104.84 117.177 106.54 116.635 108.24 115.769C110.258 114.686 112.171 113.277 113.871 111.653L113.977 111.544C114.933 110.57 115.89 109.595 116.846 108.62C119.29 105.804 122.052 103.204 124.921 100.929C126.409 99.8461 128.002 99.0878 129.596 98.4379C129.809 98.4379 129.809 98.3296 129.809 98.3296ZM119.183 120.643C118.227 119.018 117.377 117.394 116.421 115.769C115.677 114.361 114.933 113.061 114.083 111.653L113.977 111.328C112.915 109.486 111.852 107.753 110.577 106.128C109.621 104.829 108.558 103.637 107.39 102.554C107.283 102.446 107.283 102.446 107.177 102.337L106.752 102.012C105.265 100.821 103.671 99.8461 101.865 99.3045C100.058 98.7629 98.1458 98.6546 96.3395 98.7629C94.427 98.8712 92.6207 99.1961 90.8145 99.7377C90.177 99.9544 89.6457 100.171 89.0082 100.388C88.9019 100.388 88.7957 100.496 88.6894 100.496C85.9269 101.687 83.3769 103.312 81.0394 105.045L80.8269 105.154L80.7206 105.262C77.9581 107.428 74.9831 109.486 71.9018 111.328H71.7955V111.436C71.7955 111.436 71.7955 111.436 71.7955 111.544H71.9018L72.008 111.436C75.0893 109.595 78.0643 107.537 80.9331 105.37L81.0394 105.262L81.1456 105.154C83.5894 103.312 86.2457 101.796 89.0082 100.496L89.327 100.388C89.8582 100.171 90.3895 99.9544 90.9207 99.8461C92.727 99.3045 94.5332 98.9795 96.3395 98.8712C98.1458 98.7629 100.058 98.9795 101.758 99.4128C103.565 99.9544 105.158 100.821 106.646 102.012C106.752 102.121 106.858 102.229 106.965 102.337C107.071 102.446 107.177 102.446 107.177 102.554C108.346 103.637 109.408 104.829 110.365 106.128C111.64 107.753 112.702 109.486 113.765 111.328L113.871 111.653C114.615 112.953 115.465 114.361 116.208 115.769C117.696 118.477 119.183 121.293 120.883 123.893H120.99C120.565 122.809 119.927 121.726 119.183 120.643ZM104.84 120.102C104.308 119.235 103.777 118.368 103.246 117.502C103.14 117.394 103.14 117.285 103.033 117.177C102.608 116.527 102.29 115.877 101.865 115.227C101.015 113.927 100.271 112.519 99.4208 111.219L99.2083 111.003C98.1458 109.27 96.8708 107.537 95.5958 105.912C94.427 104.395 93.0457 103.096 91.5582 102.012C90.8145 101.471 90.0707 101.038 89.327 100.604L89.0082 100.496C88.2644 100.171 87.4144 99.846 86.5644 99.6294C84.7582 99.1961 82.8456 99.0878 81.0394 99.3045C79.2331 99.4128 77.3206 99.8461 75.6206 100.496C75.1956 100.713 74.6643 100.821 74.2393 101.038V101.254C74.2393 101.254 74.2393 101.254 74.2393 101.362H74.3456C74.7706 101.146 75.1956 100.929 75.7268 100.821C77.4268 100.171 79.2331 99.7377 81.0394 99.6294C82.8456 99.4128 84.7582 99.5211 86.4582 99.9544C87.2019 100.171 87.9457 100.388 88.5832 100.713L88.9019 100.821C89.752 101.254 90.602 101.687 91.3457 102.337C92.8332 103.421 94.2145 104.72 95.3833 106.237C96.6583 107.862 97.9333 109.486 98.9958 111.328C98.9958 111.436 99.102 111.544 99.2083 111.544C100.058 112.844 100.908 114.144 101.652 115.552L102.821 117.502L103.033 117.827C104.415 119.993 105.796 122.268 107.283 124.326H107.39C106.646 122.701 105.796 121.401 104.84 120.102ZM129.702 97.5714C128.427 96.9215 127.152 96.4882 125.771 96.2715C123.965 95.9466 122.052 95.8383 120.246 96.0549C118.333 96.1632 116.527 96.5965 114.827 97.2464C113.127 97.8963 111.427 98.8712 109.94 100.063C108.983 100.821 108.133 101.579 107.283 102.337L107.177 102.446C105.371 104.179 103.777 106.129 102.183 107.97C101.333 108.945 100.377 110.028 99.4208 110.894L99.3145 111.003C97.7208 112.736 95.9145 114.144 93.8957 115.336L93.2582 115.66L92.9395 115.769C91.6645 116.419 90.177 116.852 88.7957 117.177C86.9894 117.502 85.1832 117.61 83.2706 117.394C81.4644 117.177 79.6581 116.744 78.0643 115.877C76.4706 115.011 74.8768 113.927 73.4956 112.736C72.9643 112.303 72.5393 111.869 72.008 111.436C72.008 111.436 72.008 111.436 72.008 111.544C72.008 111.653 72.008 111.653 72.008 111.761L73.3893 112.953C74.7706 114.252 76.3643 115.336 77.9581 116.202C79.6581 117.069 81.4644 117.61 83.2706 117.827C85.0769 118.044 86.9894 117.935 88.7957 117.61C90.3895 117.285 91.877 116.744 93.2582 116.094L93.577 115.985C93.6832 115.877 93.8957 115.877 94.002 115.769C96.0208 114.577 97.827 113.169 99.4208 111.436L99.527 111.328C100.483 110.353 101.44 109.27 102.29 108.295C103.99 106.345 105.583 104.504 107.283 102.771C107.283 102.662 107.39 102.662 107.39 102.662C108.24 101.904 109.09 101.146 109.94 100.388C111.427 99.1961 113.021 98.3296 114.721 97.6797C116.421 97.0298 118.227 96.5965 120.033 96.4882C121.84 96.2715 123.752 96.3799 125.559 96.7048C126.94 96.9215 128.321 97.3547 129.596 98.0046C129.702 97.788 129.702 97.6797 129.702 97.5714Z" fill="white"/>
<path d="M119.923 52.7283C146.274 75.4751 169.436 105.804 166.568 114.903C163.593 124.543 143.936 134.4 126.936 135.592C123.43 135.808 114.292 109.487 117.905 108.512C120.667 107.754 133.417 104.938 135.011 103.205C136.074 102.013 117.586 75.6917 112.061 60.7438C106.536 45.2543 112.911 46.6625 119.923 52.7283Z" fill="#FFC4C0"/>
<path d="M125.131 108.187C125.131 108.187 114.612 108.62 107.706 109.27C103.881 109.595 97.2933 110.787 94.637 112.411C90.5995 114.794 75.0868 127.251 77.9556 131.15C80.6119 134.725 85.0744 129.634 85.0744 129.634C85.0744 129.634 79.5494 134.725 83.2682 137.325C86.9869 139.924 92.1933 132.884 92.1933 132.884C92.1933 132.884 86.0307 137.866 90.1745 140.358C93.787 142.524 100.8 134.942 100.8 134.942C100.8 134.942 93.787 139.383 97.187 141.982C101.012 144.799 112.912 134.833 112.912 134.833C121.837 136.458 127.469 136.133 133.844 134.725C135.119 134.292 125.131 108.187 125.131 108.187Z" fill="#FFC4C0"/>
<path d="M90.495 134.508C90.92 133.967 91.345 133.425 91.77 132.883C92.62 131.8 93.47 130.825 94.5325 129.85C95.4888 128.876 96.4451 128.009 97.5076 127.143C98.5701 126.276 99.7388 125.409 100.801 124.543C100.908 124.435 101.014 124.543 100.908 124.651C99.8451 125.518 98.8888 126.493 97.9326 127.576C96.9763 128.551 96.02 129.526 95.0638 130.5C94.1075 131.475 93.1513 132.342 92.195 133.317C91.77 133.75 91.2387 134.292 90.8137 134.725C90.3887 135.158 89.9637 135.7 89.5387 136.025C89.4325 136.025 89.4325 136.025 89.4325 135.916C89.7512 135.483 90.1762 134.941 90.495 134.508Z" fill="#263238"/>
<path d="M84.0142 130.609C85.5017 128.551 87.0955 126.601 88.9017 124.76C90.708 122.918 92.6205 121.402 94.7455 119.994C94.8518 119.994 94.8518 119.994 94.8518 120.102C93.0455 121.943 91.2393 123.676 89.433 125.518C88.583 126.384 84.6517 130.501 84.2267 130.825C84.0142 130.934 83.908 130.717 84.0142 130.609Z" fill="#263238"/>
<path d="M96.6582 138.299C98.1457 136.35 99.6332 134.617 101.333 132.884C103.246 131.367 105.158 129.959 107.283 128.659C107.39 128.659 107.496 128.767 107.39 128.767C105.477 130.284 103.671 131.8 101.864 133.533C101.014 134.292 97.7207 137.758 96.7644 138.408C96.7644 138.408 96.6582 138.408 96.6582 138.299C96.6582 138.408 96.6582 138.408 96.6582 138.299Z" fill="#263238"/>
<path d="M121.839 83.4904L146.808 76.883C146.808 76.883 128.108 57.819 118.864 51.4283C109.302 44.7125 105.264 46.4456 111.321 60.852C117.377 75.2583 121.839 83.4904 121.839 83.4904Z" fill="#FE9563"/>
<path d="M124.387 55.5447C123.325 54.8948 122.369 54.2448 121.306 53.7032C119.712 52.8367 118.012 51.9701 116.206 51.3202C114.506 50.6703 112.594 50.2371 110.787 50.1288C110.575 50.1288 110.362 50.1288 110.256 50.1288C110.15 50.1288 109.937 50.1288 109.831 50.1288C109.406 50.1288 108.981 50.1288 108.556 50.1288C108.556 50.2371 108.556 50.2371 108.556 50.3454C108.875 50.3454 109.3 50.3454 109.619 50.3454H110.044H110.787C112.594 50.4537 114.4 50.887 116.206 51.5369C117.906 52.1868 119.606 52.945 121.306 53.8116C122.581 54.4615 123.856 55.2197 125.025 55.9779L124.387 55.5447ZM112.7 47.9624C111.637 48.6123 110.681 49.2622 109.831 50.1288L109.619 50.3454C109.3 50.6703 108.981 50.9953 108.662 51.3202L108.556 51.4286C108.556 51.5369 108.556 51.6452 108.556 51.8618C108.662 51.7535 108.769 51.6452 108.769 51.5369C109.087 51.1036 109.512 50.7787 109.937 50.3454C110.044 50.2371 110.044 50.2371 110.15 50.2371C111 49.4788 111.956 48.7206 112.912 48.0707L112.7 47.9624ZM142.344 72.2257C140.75 75.0419 138.519 77.3166 135.756 78.9414C134.694 79.5913 133.631 80.1329 132.569 80.5661L134.056 80.1329C134.694 79.8079 135.331 79.483 135.969 79.0497C137.563 78.0748 139.05 76.8833 140.325 75.4752C141.175 74.5003 141.919 73.4172 142.663 72.334L142.344 72.2257Z" fill="white"/>
<path d="M134.056 64.3187C133.843 65.077 133.524 65.8352 133.312 66.4851C132.356 70.1679 130.974 73.6341 129.381 77.1003C128.531 78.7251 127.362 80.3498 126.087 81.6496C125.981 81.758 125.874 81.8663 125.874 81.8663C126.618 81.8663 127.362 81.8663 127.999 81.758L126.937 82.0829C126.512 82.0829 126.087 82.0829 125.662 82.0829C125.449 82.2996 125.343 82.4079 125.131 82.5162L124.493 82.7328C124.706 82.5162 125.024 82.2996 125.237 82.0829C123.749 81.9746 122.262 81.758 120.774 81.433C120.774 81.3247 120.668 81.3247 120.668 81.2164C122.156 81.6496 123.749 81.8663 125.237 81.9746H125.343C125.556 81.8663 125.662 81.6497 125.768 81.5413C127.043 80.2415 128.212 78.7251 129.062 77.1003C130.762 73.7424 132.037 70.1679 132.993 66.5934C133.206 65.8352 133.524 64.9687 133.737 64.2104L134.056 64.3187Z" fill="white"/>
<path d="M122.476 78.6164C123.007 78.3997 123.645 78.1831 124.282 78.0748L126.088 77.5332C127.363 77.2082 128.532 76.8833 129.807 76.45C132.251 75.8001 134.801 75.1502 137.245 74.5003L139.264 73.9587C140.007 73.8504 140.751 73.742 141.495 73.5254M141.495 73.6337C140.857 73.8504 140.326 74.067 139.689 74.2836L137.882 74.9335C136.607 75.2585 135.439 75.5834 134.163 75.9084C131.72 76.5583 129.276 77.2082 126.832 77.7498L124.813 78.2914C124.07 78.5081 123.326 78.7247 122.688 78.833C122.582 78.833 122.582 78.7247 122.688 78.7247L141.495 73.6337Z" fill="#263238"/>
<path d="M113.232 67.8921C113.232 67.7838 113.232 67.8921 113.232 67.8921C113.975 68.6503 114.613 69.4085 115.144 70.2751C114.932 69.8418 114.719 69.4086 114.613 68.9753C113.975 67.5671 113.444 66.159 112.807 64.8592C112.807 64.8592 112.807 64.7509 112.913 64.8592C114.082 67.2422 115.463 69.5169 116.632 71.8999C117.8 74.2829 118.969 76.6659 120.032 79.0489C120.669 80.3487 121.307 82.0818 121.944 83.3816C122.688 83.2733 123.644 83.0566 124.388 82.9483C124.494 82.9483 124.494 83.0566 124.388 83.0566C123.538 83.2733 122.582 83.7065 121.732 83.8148C121.625 83.8148 117.482 75.366 115.675 71.3583C114.719 70.1668 113.975 69.0836 113.232 67.8921Z" fill="#263238"/>
<path d="M97.0809 58.5772C100.693 59.6604 107.175 54.3528 109.937 49.9118C110.15 49.5868 109.831 46.229 109.619 42.2212C109.512 39.7299 109.512 37.0219 109.619 34.5306C109.619 33.989 93.8934 37.4552 93.8934 37.4552C94.6372 40.7047 94.9559 43.9543 94.8497 47.2038C94.8497 47.5288 94.7434 47.8537 94.7434 48.1787V48.3953C94.2122 50.2367 93.5746 57.494 97.0809 58.5772Z" fill="#FFC4C0"/>
<path d="M108.663 34.4229C107.707 38.6473 104.519 48.7208 96.3378 48.5042C95.8065 48.5042 95.2753 48.3959 94.744 48.2876C94.744 48.1792 94.744 48.1792 94.744 48.0709C94.8503 47.746 94.8503 47.421 94.9565 47.096C95.0628 43.8465 94.6378 40.597 94.0003 37.3474C93.894 37.4557 105.263 34.8561 108.663 34.4229Z" fill="#263238"/>
<path d="M111.639 15.9001C113.021 21.5326 109.408 37.5637 105.371 41.0299C99.4205 46.0125 90.1767 46.0125 86.1391 38.8635C82.2078 31.9311 87.3079 11.1341 91.8767 8.10115C98.4642 3.55179 109.514 7.45126 111.639 15.9001Z" fill="#AD6359"/>
<path d="M111.639 15.9001C113.021 21.5326 109.408 37.5637 105.371 41.0299C99.4205 46.0125 90.1767 46.0125 86.1391 38.8635C82.2078 31.9311 87.3079 11.1341 91.8767 8.10115C98.4642 3.55179 109.514 7.45126 111.639 15.9001Z" fill="#FFC4C0"/>
<path d="M95.3821 25.2158L95.4883 25.3241C95.1696 26.4073 95.0633 27.7071 95.9133 28.2487C95.9133 28.2487 95.9133 28.357 95.9133 28.2487C94.8508 27.8154 94.9571 26.0824 95.3821 25.2158Z" fill="#263238"/>
<path d="M96.6559 24.2409C98.3559 24.4575 97.7184 28.0321 96.1247 27.8154C94.5309 27.5988 95.1684 24.0243 96.6559 24.2409Z" fill="#263238"/>
<path d="M89.4308 24.1323C89.4308 24.1323 89.3246 24.1323 89.3246 24.2406C89.2183 25.3238 88.7933 26.5153 87.7308 26.732C88.8996 26.8403 89.4308 25.1072 89.4308 24.1323Z" fill="#263238"/>
<path d="M88.6889 22.7239C86.9888 22.2906 86.2451 25.7568 87.8388 26.1901C89.4326 26.6234 90.0701 23.1572 88.6889 22.7239Z" fill="#263238"/>
<path d="M98.6773 21.5316C98.2523 21.4233 97.8273 21.2067 97.2961 20.99C96.7648 20.8817 96.3398 20.5568 96.021 20.2318C95.8085 19.9069 95.9148 19.5819 96.1273 19.3653C96.6586 18.932 97.4023 18.932 98.0398 19.1487C98.6773 19.3653 99.2086 19.7986 99.6336 20.3402C99.8461 20.7734 99.7398 21.2067 99.3148 21.4233C99.1023 21.5317 98.8898 21.5316 98.6773 21.5316Z" fill="#263238"/>
<path d="M87.6264 20.883C88.1576 20.883 88.5826 20.883 89.1139 20.7747C89.6452 20.7747 90.1764 20.6664 90.6014 20.3414C90.8139 20.1248 90.9202 19.6915 90.7077 19.4748C90.2827 18.9333 89.6452 18.7166 89.0077 18.8249C88.3701 18.8249 87.7326 19.0416 87.2014 19.5832C86.8826 19.9081 86.8826 20.4497 87.2014 20.6664C87.2014 20.883 87.4139 20.883 87.6264 20.883Z" fill="#263238"/>
<path d="M95.2769 35.6132C94.9581 35.8298 94.6394 36.1548 94.3206 36.0465C93.8956 35.9382 93.5769 35.8298 93.2581 35.5049C93.1519 35.5049 93.2581 35.5049 93.2581 35.5049C93.4706 36.0465 94.0019 36.3714 94.5331 36.3714C95.0644 36.3714 95.4894 36.0465 95.5956 35.5049C95.4894 35.6132 95.3831 35.6132 95.2769 35.6132Z" fill="#263238"/>
<path d="M94.8496 32.1483C94.1059 32.9065 93.1496 33.3398 92.0871 33.3398C91.6621 33.3398 91.2371 33.2315 90.8121 33.1231L90.5996 33.0148L90.3871 32.9065C90.2808 32.9065 90.1746 32.7982 90.1746 32.5815V32.4732V32.3649C90.2808 31.4983 90.5996 30.3069 90.5996 30.3069C90.2808 30.4152 88.5808 30.8485 88.6871 30.4152C89.4308 26.624 90.5996 22.9412 92.1933 19.475C92.1933 19.3667 92.4058 19.475 92.4058 19.5834C91.6621 23.0495 90.3871 26.4074 89.6433 29.8736C90.2808 29.7653 90.8121 29.6569 91.4496 29.6569C91.5558 29.7653 90.8121 32.0399 90.8121 32.4732C92.1933 32.9065 93.5746 32.6899 94.8496 32.04C94.8496 32.04 94.9559 32.1483 94.8496 32.1483Z" fill="#263238"/>
<path d="M91.3464 32.7974C91.6652 33.4473 92.1964 34.0972 92.8339 34.5304C93.1527 34.7471 93.5777 34.8554 94.0027 34.8554C94.9589 34.7471 95.0652 33.9889 95.0652 33.2306C95.0652 32.9057 94.9589 32.4724 94.8527 32.1475C93.7902 32.7974 92.5152 33.014 91.3464 32.7974Z" fill="#263238"/>
<path d="M92.8312 34.5308C93.15 34.7475 93.575 34.8558 94 34.8558C94.9563 34.7475 95.0625 33.9892 95.0625 33.231C94.1063 33.1227 93.15 33.6643 92.8312 34.5308Z" fill="#FF97B8"/>
<path opacity="0.2" d="M111.002 27.7067C110.046 27.2735 108.346 23.0491 107.602 21.4243C106.858 19.7995 108.027 11.8923 108.346 10.1592C109.939 11.6756 111.108 13.6254 111.639 15.7917C112.277 18.2831 111.958 23.049 111.002 27.7067Z" fill="#263238"/>
<path d="M93.9997 13.3002C94.9559 15.0333 96.6559 16.1165 98.5685 16.2248C100.481 16.3331 102.393 15.3583 103.456 13.7335M103.562 13.7335C102.5 15.5749 100.587 16.6581 98.5685 16.6581C96.5497 16.4414 94.7434 15.2499 93.8934 13.3002C93.8934 13.1919 93.9997 13.1919 93.9997 13.1919L103.562 13.7335Z" fill="#263238"/>
<path d="M102.394 0.843612C105.263 1.49352 107.707 3.55154 108.769 6.36781C109.194 7.77594 109.088 9.1841 108.557 10.4839H108.45C109.088 7.9926 108.344 5.39295 106.538 3.65986C104.625 1.71013 101.863 0.735281 99.1003 1.16855C97.8252 1.27687 96.5502 1.92679 95.7002 2.90165C95.594 3.00997 95.3815 2.90164 95.4877 2.79332C96.6565 0.951917 99.5252 0.0853854 102.394 0.843612Z" fill="#263238"/>
<path d="M82.7379 3.87631C83.5879 2.35986 84.8629 1.27669 86.4567 0.735095C88.6879 -0.13145 90.813 0.518459 92.938 1.27669C93.0442 1.27669 92.938 1.38501 92.938 1.38501C91.1317 0.626783 89.2192 0.518465 87.4129 0.84342C85.8192 1.27669 84.5442 2.25156 83.5879 3.55137C81.6754 6.36764 82.1004 10.2671 84.6504 12.5418C86.1379 13.8416 87.9442 14.3832 89.8567 14.1665C89.963 14.1665 89.963 14.2749 89.8567 14.2749C86.0317 14.8165 82.5254 12.1085 81.9941 8.31736C81.6754 6.80091 81.9941 5.28445 82.7379 3.87631Z" fill="#263238"/>
<path d="M112.064 19.1498C112.064 19.1498 116.208 14.0588 114.401 10.1594C113.339 7.99299 108.664 7.23478 108.664 7.23478C107.814 5.06842 106.114 3.33534 103.989 2.46879C100.27 0.735702 95.0636 2.14382 95.0636 2.14382C95.0636 2.14382 91.7698 -0.780771 87.8385 0.519046C82.4197 2.36045 81.5697 10.051 85.926 13.5172C89.0073 15.9002 94.3198 13.7339 94.3198 13.7339C94.7449 13.8422 98.7824 17.6333 103.139 14.1671C103.139 14.1671 105.476 17.3084 108.345 16.0086C108.876 17.85 110.364 19.0415 112.064 19.1498Z" fill="#263238"/>
<path d="M107.708 28.8979C107.708 28.8979 111.639 23.9153 113.87 25.4317C116.101 26.9482 112.914 34.3138 110.151 35.1804C108.77 35.722 107.07 34.9637 106.539 33.5556V33.4473L107.708 28.8979Z" fill="#FFC4C0"/>
<path d="M112.807 27.4902C110.788 28.1401 109.726 29.8733 108.876 31.7147C109.407 30.9564 110.363 30.8481 111.001 31.3897C111.107 31.3897 111.107 31.498 111.213 31.498C111.213 31.498 111.213 31.6063 111.107 31.6063C110.47 31.2814 109.62 31.498 109.195 32.0396C108.77 32.4729 108.451 33.0145 108.238 33.5561C108.132 33.7727 107.813 33.556 107.92 33.4477C108.026 30.8481 110.151 27.4902 112.807 27.4902Z" fill="#263238"/>
<path d="M111.746 51.103C110.046 53.161 108.133 55.219 106.221 57.0605C104.414 58.9019 102.077 60.2017 99.5268 60.5266C97.083 60.7433 94.6393 60.2017 93.7893 57.1688C93.1518 54.5691 93.1518 51.7528 93.683 49.1532C93.683 49.1532 93.683 49.0449 93.5768 49.0449C93.5768 49.0449 93.4705 49.0449 93.4705 49.1532C93.4705 49.1532 93.4705 49.1532 93.4705 49.2615C92.833 53.2693 92.1955 59.4435 95.808 60.8516C99.8456 62.4764 103.671 60.4183 106.539 57.602C108.558 55.6523 110.258 53.486 111.746 51.103C111.746 51.2113 111.746 50.9946 111.746 51.103Z" fill="#263238"/>
</svg>
